<svg width="83" height="80" viewBox="0 0 83 80" fill="none" xmlns="http://www.w3.org/2000/svg">
<path d="M13.4047 53.2685C12.4129 51.6035 13.0979 49.446 14.8684 48.6579L30.55 41.6782C31.4979 41.2564 32.5906 41.3148 33.4881 41.8353L42.4489 47.032C43.3416 47.5497 43.9337 48.4624 44.0427 49.4886L45.8723 66.7198C46.0763 68.6413 44.5613 70.3118 42.6291 70.2959L35.3803 70.2363C33.4295 70.2203 31.9367 68.494 32.2024 66.5613L33.6519 56.0159C33.7708 55.1509 33.3537 54.3001 32.597 53.8644C31.8393 53.4281 30.8927 53.4951 30.2041 54.0339L21.9487 60.4927C20.414 61.6935 18.1738 61.2746 17.1766 59.6005L13.4047 53.2685Z" fill="white"/>
<path fill-rule="evenodd" clip-rule="evenodd" d="M47.4586 46.5604L61.3163 56.7539C62.1009 57.331 63.2139 57.0888 63.6877 56.2377L67.2788 49.7866C67.7517 48.9371 67.3736 47.8653 66.4722 47.5007L56.6537 43.5286C55.2317 42.9534 54.3011 41.5729 54.3011 40.039C54.3011 38.5148 55.2202 37.1411 56.629 36.5595L66.4819 32.4922C67.3788 32.122 67.7501 31.0508 67.2747 30.205L63.6965 23.8372C63.2206 22.9903 62.1107 22.7511 61.3282 23.3267L47.4586 33.5286C47.0442 33.8334 46.7996 34.3171 46.7996 34.8315V45.2575C46.7996 45.7719 47.0442 46.2556 47.4586 46.5604ZM46.5002 47.8632C45.6716 47.2536 45.1823 46.2862 45.1823 45.2575V34.8315C45.1823 33.8027 45.6716 32.8353 46.5003 32.2258L60.3699 22.0238C61.9349 20.8726 64.1546 21.3511 65.1064 23.0449L68.6847 29.4126C69.6354 31.1044 68.8928 33.2467 67.099 33.9872L57.2462 38.0544C56.4426 38.3862 55.9184 39.1697 55.9184 40.039C55.9184 40.9139 56.4492 41.7012 57.2602 42.0293L67.0788 46.0014C68.8814 46.7306 69.6378 48.8742 68.692 50.5732L65.1008 57.0243C64.1533 58.7265 61.9272 59.211 60.3579 58.0567L46.5002 47.8632Z" fill="#2DEBFC"/>
<path d="M42.4488 32.938C43.3415 32.4203 43.9336 31.5077 44.0426 30.4814L45.869 13.2801C46.0742 11.348 44.5417 9.67232 42.599 9.7044L35.3492 9.82412C33.4094 9.85616 31.9339 11.5768 32.1981 13.4988L33.6513 24.0708C33.7705 24.9381 33.3522 25.7911 32.5935 26.2278C31.8372 26.663 30.8929 26.5983 30.2032 26.0639L21.8345 19.5796C20.2961 18.3876 18.0609 18.8142 17.0697 20.4891L13.3905 26.7054C12.4053 28.3701 13.0917 30.5215 14.8589 31.3081L30.55 38.2918C31.4978 38.7137 32.5905 38.6553 33.488 38.1348L42.4488 32.938Z" fill="#2C85FC"/>
</svg>
